<?xml version="1.0" encoding="UTF-8" standalone="no"?>
<!DOCTYPE svg PUBLIC "-//W3C//DTD SVG 1.1//EN" "http://www.w3.org/Graphics/SVG/1.1/DTD/svg11.dtd">
<svg width="100%" height="100%" viewBox="0 0 24 24" version="1.1" xmlns="http://www.w3.org/2000/svg" xmlns:xlink="http://www.w3.org/1999/xlink" xml:space="preserve" xmlns:serif="http://www.serif.com/" style="fill-rule:evenodd;clip-rule:evenodd;stroke-linejoin:round;stroke-miterlimit:1.41421;">
    <path d="M19,0L5,0C2.239,0 0,2.239 0,5L0,19C0,21.761 2.239,24 5,24L19,24C21.762,24 24,21.761 24,19L24,5C24,2.239 21.762,0 19,0ZM16,7L14.076,7C13.461,7 13,7.252 13,7.889L13,9L16,9L15.762,12L13,12L13,20L10,20L10,12L8,12L8,9L10,9L10,7.077C10,5.055 11.064,4 13.461,4L16,4L16,7Z" style="fill:white;fill-rule:nonzero;"/>
</svg>
