<?xml version="1.0" encoding="UTF-8" standalone="no"?>
<svg
   xmlns:dc="http://purl.org/dc/elements/1.1/"
   xmlns:cc="http://creativecommons.org/ns#"
   xmlns:rdf="http://www.w3.org/1999/02/22-rdf-syntax-ns#"
   xmlns:svg="http://www.w3.org/2000/svg"
   xmlns="http://www.w3.org/2000/svg"
   id="svg4883"
   version="1.1"
   viewBox="0 0 114.05608 55.187408"
   height="208.58234"
   width="431.07812">
  <defs
     id="defs4877" />
  <metadata
     id="metadata4880">
    <rdf:RDF>
      <cc:Work
         rdf:about="">
        <dc:format>image/svg+xml</dc:format>
        <dc:type
           rdf:resource="http://purl.org/dc/dcmitype/StillImage" />
        <dc:title></dc:title>
      </cc:Work>
    </rdf:RDF>
  </metadata>
  <g
     transform="translate(-48.805294,-106.12058)"
     id="layer1">
    <path
       id="path6726"
       d="m 48.805294,114.61095 v 6.36778 16.98074 c 0,12.81961 10.477105,23.34852 23.233635,23.34852 12.756556,0 23.233662,-10.52891 23.233662,-23.34852 v -16.98074 -6.36778 H 82.599684 v 6.36778 16.98074 c 0,5.93681 -4.653139,10.61296 -10.560755,10.61296 -5.907589,0 -10.560756,-4.67615 -10.560756,-10.61296 v -16.98074 -6.36778 z"
       style="color:#000000;font-style:normal;font-variant:normal;font-weight:normal;font-stretch:normal;font-size:medium;line-height:normal;font-family:sans-serif;text-indent:0;text-align:start;text-decoration:none;text-decoration-line:none;text-decoration-style:solid;text-decoration-color:#000000;letter-spacing:normal;word-spacing:normal;text-transform:none;writing-mode:lr-tb;direction:ltr;baseline-shift:baseline;text-anchor:start;white-space:normal;clip-rule:nonzero;display:inline;overflow:visible;visibility:visible;opacity:1;isolation:auto;mix-blend-mode:normal;color-interpolation:sRGB;color-interpolation-filters:linearRGB;solid-color:#000000;solid-opacity:1;fill:#ff003e;fill-opacity:1;fill-rule:evenodd;stroke:none;stroke-width:4.23333311;stroke-linecap:square;stroke-linejoin:miter;stroke-miterlimit:4;stroke-dasharray:none;stroke-dashoffset:4;stroke-opacity:1;color-rendering:auto;image-rendering:auto;shape-rendering:auto;text-rendering:auto;enable-background:accumulate" />
    <path
       id="path6728"
       d="m 105.83332,114.61095 c -12.75653,0 -23.233636,10.52891 -23.233636,23.34852 0,12.81961 10.477106,23.34852 23.233636,23.34852 0.39861,0 0.79578,-0.01 1.18973,-0.0299 8.66668,-0.44688 16.13448,-5.7501 19.74032,-13.22972 1.47515,-3.05984 2.30361,-6.48343 2.30361,-10.08895 h -12.67291 c 0,5.93681 -4.65314,10.61297 -10.56075,10.61297 -5.907589,0 -10.560729,-4.67616 -10.560729,-10.61297 0,-0.37105 0.01863,-0.73741 0.05408,-1.09778 0.532833,-5.40551 4.967929,-9.51518 10.506309,-9.51518 h 6.33646 v -12.73555 z"
       style="color:#000000;font-style:normal;font-variant:normal;font-weight:normal;font-stretch:normal;font-size:medium;line-height:normal;font-family:sans-serif;text-indent:0;text-align:start;text-decoration:none;text-decoration-line:none;text-decoration-style:solid;text-decoration-color:#000000;letter-spacing:normal;word-spacing:normal;text-transform:none;writing-mode:lr-tb;direction:ltr;baseline-shift:baseline;text-anchor:start;white-space:normal;clip-rule:nonzero;display:inline;overflow:visible;visibility:visible;opacity:1;isolation:auto;mix-blend-mode:normal;color-interpolation:sRGB;color-interpolation-filters:linearRGB;solid-color:#000000;solid-opacity:1;fill:#ff003e;fill-opacity:1;fill-rule:evenodd;stroke:none;stroke-width:4.23333311;stroke-linecap:butt;stroke-linejoin:miter;stroke-miterlimit:4;stroke-dasharray:none;stroke-dashoffset:4;stroke-opacity:1;color-rendering:auto;image-rendering:auto;shape-rendering:auto;text-rendering:auto;enable-background:accumulate" />
    <path
       id="path6730"
       d="m 150.18846,106.12058 v 6.36778 4.81563 c -3.18789,-1.66289 -6.74592,-2.69304 -10.56072,-2.69304 -12.75656,0 -23.23367,10.52891 -23.23367,23.34852 0,12.81961 10.47711,23.34852 23.23367,23.34852 12.75652,0 23.23363,-10.52891 23.23363,-23.34852 v -6.36778 -19.10333 -6.36778 z m -10.56072,21.22593 c 5.90759,0 10.56072,4.67615 10.56072,10.61296 0,5.93681 -4.65313,10.61296 -10.56072,10.61296 -5.90762,0 -10.56076,-4.67615 -10.56076,-10.61296 0,-5.93681 4.65314,-10.61296 10.56076,-10.61296 z"
       style="color:#000000;font-style:normal;font-variant:normal;font-weight:normal;font-stretch:normal;font-size:medium;line-height:normal;font-family:sans-serif;text-indent:0;text-align:start;text-decoration:none;text-decoration-line:none;text-decoration-style:solid;text-decoration-color:#000000;letter-spacing:normal;word-spacing:normal;text-transform:none;writing-mode:lr-tb;direction:ltr;baseline-shift:baseline;text-anchor:start;white-space:normal;clip-rule:nonzero;display:inline;overflow:visible;visibility:visible;opacity:1;isolation:auto;mix-blend-mode:normal;color-interpolation:sRGB;color-interpolation-filters:linearRGB;solid-color:#000000;solid-opacity:1;fill:#ff003e;fill-opacity:1;fill-rule:evenodd;stroke:none;stroke-width:4.23333311;stroke-linecap:square;stroke-linejoin:miter;stroke-miterlimit:4;stroke-dasharray:none;stroke-dashoffset:4;stroke-opacity:1;color-rendering:auto;image-rendering:auto;shape-rendering:auto;text-rendering:auto;enable-background:accumulate" />
  </g>
</svg>
