<?xml version="1.0" encoding="UTF-8" standalone="no"?>
<!DOCTYPE svg PUBLIC "-//W3C//DTD SVG 1.1//EN" "http://www.w3.org/Graphics/SVG/1.1/DTD/svg11.dtd">
<svg width="100%" height="100%" viewBox="0 0 432 209" version="1.1" xmlns="http://www.w3.org/2000/svg" xmlns:xlink="http://www.w3.org/1999/xlink" xml:space="preserve" xmlns:serif="http://www.serif.com/" style="fill-rule:evenodd;clip-rule:evenodd;stroke-linejoin:round;stroke-miterlimit:1.41421;">
    <g id="layer1" transform="matrix(1,0,0,1,-184.461,-401.086)">
        <path id="path6726" d="M184.461,433.175L184.461,521.422C184.461,569.874 224.059,609.668 272.273,609.668C320.487,609.668 360.085,569.874 360.085,521.422L360.085,457.242L360.085,433.175L312.188,433.175L312.188,521.422C312.188,543.86 294.601,561.534 272.273,561.534C249.945,561.534 232.358,543.86 232.358,521.422L232.358,457.242L232.358,433.175L184.461,433.175Z" style="fill:white;"/>
        <path id="path6728" d="M400,433.175C351.786,433.175 312.188,472.97 312.188,521.422C312.188,569.874 351.786,609.668 400,609.668C401.507,609.668 403.008,609.63 404.497,609.555C437.253,607.866 465.477,587.822 479.106,559.553C484.681,547.988 487.812,535.049 487.812,521.421L439.915,521.421C439.915,543.86 422.328,561.533 400,561.533C377.672,561.533 360.085,543.86 360.085,521.421C360.085,520.019 360.156,518.634 360.29,517.272C362.304,496.842 379.066,481.309 399.999,481.309L423.948,481.309L423.948,433.175L400,433.175Z" style="fill:white;"/>
        <path id="path6730" d="M567.641,401.086L567.641,443.354C555.593,437.069 542.145,433.175 527.727,433.175C479.513,433.175 439.915,472.97 439.915,521.422C439.915,569.874 479.513,609.668 527.727,609.668C575.941,609.668 615.539,569.874 615.539,521.422L615.539,497.354L615.539,425.153L615.539,401.086L567.641,401.086ZM527.727,481.31C550.055,481.31 567.641,498.983 567.641,521.422C567.641,543.86 550.055,561.534 527.727,561.534C505.399,561.534 487.812,543.86 487.812,521.422C487.812,498.983 505.399,481.31 527.727,481.31Z" style="fill:white;"/>
    </g>
</svg>
