<?xml version="1.0" encoding="UTF-8" standalone="no"?>
<svg
   xmlns:dc="http://purl.org/dc/elements/1.1/"
   xmlns:cc="http://creativecommons.org/ns#"
   xmlns:rdf="http://www.w3.org/1999/02/22-rdf-syntax-ns#"
   xmlns:svg="http://www.w3.org/2000/svg"
   xmlns="http://www.w3.org/2000/svg"
   id="svg4990"
   version="1.1"
   viewBox="0 0 98.32225 135.16437"
   height="510.85745"
   width="371.61166">
  <defs
     id="defs4984" />
  <metadata
     id="metadata4987">
    <rdf:RDF>
      <cc:Work
         rdf:about="">
        <dc:format>image/svg+xml</dc:format>
        <dc:type
           rdf:resource="http://purl.org/dc/dcmitype/StillImage" />
        <dc:title></dc:title>
      </cc:Work>
    </rdf:RDF>
  </metadata>
  <g
     transform="translate(-57.428196,-83.519005)"
     id="layer1">
    <g
       transform="matrix(0.28222223,0,0,0.28222223,-1874.6594,71.023836)"
       id="g4947"
       style="opacity:1">
      <path
         id="path4894"
         d="m 7054.0476,109.21001 c 4.443,0.063 8.0785,-3.5213 8.0785,-7.9647 0,-4.443405 -3.6355,-8.027805 -8.0785,-7.964705 l -67.7,6.964305 c -4.443,-0.063 -8.0785,1.557 -8.0785,6.0004 0,4.4434 3.6355,8.0277 8.0785,7.9647 z"
         style="color:#000000;font-style:normal;font-variant:normal;font-weight:normal;font-stretch:normal;font-size:medium;line-height:normal;font-family:sans-serif;text-indent:0;text-align:start;text-decoration:none;text-decoration-line:none;text-decoration-style:solid;text-decoration-color:#000000;letter-spacing:normal;word-spacing:normal;text-transform:none;writing-mode:lr-tb;direction:ltr;baseline-shift:baseline;text-anchor:start;white-space:normal;clip-rule:nonzero;display:inline;overflow:visible;visibility:visible;opacity:1;isolation:auto;mix-blend-mode:normal;color-interpolation:sRGB;color-interpolation-filters:linearRGB;solid-color:#000000;solid-opacity:1;fill:#65003e;fill-opacity:1;fill-rule:evenodd;stroke:none;stroke-width:20;stroke-linecap:round;stroke-linejoin:miter;stroke-miterlimit:4;stroke-dasharray:none;stroke-dashoffset:0;stroke-opacity:1;color-rendering:auto;image-rendering:auto;shape-rendering:auto;text-rendering:auto;enable-background:accumulate" />
      <path
         id="path4896"
         style="fill:#ff003e;fill-opacity:1;fill-rule:evenodd;stroke:none;stroke-width:5;stroke-linecap:round;stroke-linejoin:miter;stroke-miterlimit:4;stroke-dasharray:none;stroke-opacity:1"
         d="m 6975.7527,108.91731 c 27.6304,-6.8125 60.7086,-7.2865 87.3358,0 2.8588,0.7823 5.9838,1.2925 6.4962,6.0714 2.0456,67.5486 46.0914,80.0793 72.9076,109.8093 69.0061,68.9435 69.0061,179.2951 0.9433,247.3579 -68.0629,68.0629 -178.4145,68.0629 -246.4773,0 -68.0628,-68.0628 -68.0628,-178.4144 0.5479,-247.3579 26.4207,-29.73 70.14,-42.7763 72.1856,-110.3249 0.4951,-2.9323 3.3999,-4.8997 6.0609,-5.5558 z" />
      <path
         id="path4898"
         d="m 7054.0476,94.689005 c 4.443,0.063 8.0785,-2.2713 8.0785,-6.7147 0,-4.4434 -3.6355,-8.0277 -8.0785,-7.9647 l -67.7,6.9643 c -4.443,-0.063 -8.0785,1.557 -8.0785,6.0004 0,4.4434 3.6355,8.027705 8.0785,7.964705 z"
         style="color:#000000;font-style:normal;font-variant:normal;font-weight:normal;font-stretch:normal;font-size:medium;line-height:normal;font-family:sans-serif;text-indent:0;text-align:start;text-decoration:none;text-decoration-line:none;text-decoration-style:solid;text-decoration-color:#000000;letter-spacing:normal;word-spacing:normal;text-transform:none;writing-mode:lr-tb;direction:ltr;baseline-shift:baseline;text-anchor:start;white-space:normal;clip-rule:nonzero;display:inline;overflow:visible;visibility:visible;opacity:1;isolation:auto;mix-blend-mode:normal;color-interpolation:sRGB;color-interpolation-filters:linearRGB;solid-color:#000000;solid-opacity:1;fill:#65003e;fill-opacity:1;fill-rule:evenodd;stroke:none;stroke-width:20;stroke-linecap:round;stroke-linejoin:miter;stroke-miterlimit:4;stroke-dasharray:none;stroke-dashoffset:0;stroke-opacity:1;color-rendering:auto;image-rendering:auto;shape-rendering:auto;text-rendering:auto;enable-background:accumulate" />
      <path
         id="path4900"
         d="m 7054.0476,81.773605 c 4.443,0.063 8.0785,-2.2713 8.0785,-6.7147 0,-4.4434 -3.6355,-8.0277 -8.0785,-7.9647 l -67.7,6.9643 c -4.443,-0.063 -8.0785,1.557 -8.0785,6.0004 0,4.4434 3.6355,8.0277 8.0785,7.9647 z"
         style="color:#000000;font-style:normal;font-variant:normal;font-weight:normal;font-stretch:normal;font-size:medium;line-height:normal;font-family:sans-serif;text-indent:0;text-align:start;text-decoration:none;text-decoration-line:none;text-decoration-style:solid;text-decoration-color:#000000;letter-spacing:normal;word-spacing:normal;text-transform:none;writing-mode:lr-tb;direction:ltr;baseline-shift:baseline;text-anchor:start;white-space:normal;clip-rule:nonzero;display:inline;overflow:visible;visibility:visible;opacity:1;isolation:auto;mix-blend-mode:normal;color-interpolation:sRGB;color-interpolation-filters:linearRGB;solid-color:#000000;solid-opacity:1;fill:#65003e;fill-opacity:1;fill-rule:evenodd;stroke:none;stroke-width:20;stroke-linecap:round;stroke-linejoin:miter;stroke-miterlimit:4;stroke-dasharray:none;stroke-dashoffset:0;stroke-opacity:1;color-rendering:auto;image-rendering:auto;shape-rendering:auto;text-rendering:auto;enable-background:accumulate" />
      <path
         style="color:#000000;font-style:normal;font-variant:normal;font-weight:normal;font-stretch:normal;font-size:medium;line-height:normal;font-family:sans-serif;text-indent:0;text-align:start;text-decoration:none;text-decoration-line:none;text-decoration-style:solid;text-decoration-color:#000000;letter-spacing:normal;word-spacing:normal;text-transform:none;writing-mode:lr-tb;direction:ltr;baseline-shift:baseline;text-anchor:start;white-space:normal;clip-rule:nonzero;display:inline;overflow:visible;visibility:visible;opacity:1;isolation:auto;mix-blend-mode:normal;color-interpolation:sRGB;color-interpolation-filters:linearRGB;solid-color:#000000;solid-opacity:1;fill:#65003e;fill-opacity:1;fill-rule:evenodd;stroke:none;stroke-width:10;stroke-linecap:round;stroke-linejoin:round;stroke-miterlimit:4;stroke-dasharray:none;stroke-dashoffset:0;stroke-opacity:1;color-rendering:auto;image-rendering:auto;shape-rendering:auto;text-rendering:auto;enable-background:accumulate"
         d="m 7034.4644,61.393905 a 4.1480647,4.974634 0 0 0 2.8449,-8.594 c -10.4174,-11.7755 -27.3448,-10.9846 -36.5884,0.1009 a 4.1480647,4.974634 0 0 0 2.9326,8.4931 z"
         id="path4902" />
      <path
         style="color:#000000;font-style:normal;font-variant:normal;font-weight:normal;font-stretch:normal;font-size:medium;line-height:normal;font-family:sans-serif;text-indent:0;text-align:start;text-decoration:none;text-decoration-line:none;text-decoration-style:solid;text-decoration-color:#000000;letter-spacing:normal;word-spacing:normal;text-transform:none;writing-mode:lr-tb;direction:ltr;baseline-shift:baseline;text-anchor:start;white-space:normal;clip-rule:nonzero;display:inline;overflow:visible;visibility:visible;opacity:1;isolation:auto;mix-blend-mode:normal;color-interpolation:sRGB;color-interpolation-filters:linearRGB;solid-color:#000000;solid-opacity:1;fill:#65003e;fill-opacity:1;fill-rule:evenodd;stroke:none;stroke-width:20;stroke-linecap:round;stroke-linejoin:miter;stroke-miterlimit:4;stroke-dasharray:none;stroke-dashoffset:0;stroke-opacity:1;color-rendering:auto;image-rendering:auto;shape-rendering:auto;text-rendering:auto;enable-background:accumulate"
         d="m 7054.0476,69.273505 c 4.443,0.063 8.0785,-2.2713 8.0785,-6.7147 0,-4.4434 -4.3646,-7.2527 -8.0785,-7.9647 -27.1172,-5.199 -58.9106,2.8857 -70.0214,6.7857 -3.4811,1.2219 -5.7571,1.7356 -5.7571,6.179 0,4.4434 3.6355,8.0277 8.0785,7.9647 z"
         id="path4904" />
      <path
         style="color:#000000;font-style:normal;font-variant:normal;font-weight:normal;font-stretch:normal;font-size:medium;line-height:normal;font-family:sans-serif;text-indent:0;text-align:start;text-decoration:none;text-decoration-line:none;text-decoration-style:solid;text-decoration-color:#000000;letter-spacing:normal;word-spacing:normal;text-transform:none;writing-mode:lr-tb;direction:ltr;baseline-shift:baseline;text-anchor:start;white-space:normal;clip-rule:nonzero;display:inline;overflow:visible;visibility:visible;opacity:1;isolation:auto;mix-blend-mode:normal;color-interpolation:sRGB;color-interpolation-filters:linearRGB;solid-color:#000000;solid-opacity:1;fill:#ffffff;fill-opacity:1;fill-rule:evenodd;stroke:none;stroke-width:20;stroke-linecap:square;stroke-linejoin:miter;stroke-miterlimit:4;stroke-dasharray:none;stroke-dashoffset:4;stroke-opacity:1;color-rendering:auto;image-rendering:auto;shape-rendering:auto;text-rendering:auto;enable-background:accumulate"
         d="m 6926.7991,354.27731 v 10 28.7911 c 0,21.1443 16.9377,38.789 37.9356,38.789 20.998,0 37.9355,-17.6448 37.9355,-38.789 v -28.7911 -10 h -20 v 10 28.7911 c 0,10.6563 -8.0769,18.789 -17.9355,18.789 -9.8583,0 -17.9356,-8.1328 -17.9356,-18.789 v -28.7911 -10 z"
         id="path4906" />
      <path
         style="color:#000000;font-style:normal;font-variant:normal;font-weight:normal;font-stretch:normal;font-size:medium;line-height:normal;font-family:sans-serif;text-indent:0;text-align:start;text-decoration:none;text-decoration-line:none;text-decoration-style:solid;text-decoration-color:#000000;letter-spacing:normal;word-spacing:normal;text-transform:none;writing-mode:lr-tb;direction:ltr;baseline-shift:baseline;text-anchor:start;white-space:normal;clip-rule:nonzero;display:inline;overflow:visible;visibility:visible;opacity:1;isolation:auto;mix-blend-mode:normal;color-interpolation:sRGB;color-interpolation-filters:linearRGB;solid-color:#000000;solid-opacity:1;fill:#ffffff;fill-opacity:1;fill-rule:evenodd;stroke:none;stroke-width:20;stroke-linecap:square;stroke-linejoin:miter;stroke-miterlimit:4;stroke-dasharray:none;stroke-dashoffset:4;stroke-opacity:1;color-rendering:auto;image-rendering:auto;shape-rendering:auto;text-rendering:auto;enable-background:accumulate"
         d="m 7020.6058,354.27731 c -20.998,0 -37.9356,17.6469 -37.9356,38.7911 0,21.1442 16.9376,38.789 37.9356,38.789 20.9979,0 37.9355,-17.6448 37.9355,-38.789 h -20 c 0,9.9902 -7.0989,17.7628 -16.1093,18.6953 -0.6007,0.062 -1.2101,0.094 -1.8262,0.094 -9.8585,0 -17.9356,-8.1327 -17.9356,-18.789 0,-0.666 0.032,-1.3219 0.094,-1.9668 0.9235,-9.6741 8.5994,-16.8243 17.8418,-16.8243 h 10 v -20 z"
         id="path4908" />
      <path
         style="color:#000000;font-style:normal;font-variant:normal;font-weight:normal;font-stretch:normal;font-size:medium;line-height:normal;font-family:sans-serif;text-indent:0;text-align:start;text-decoration:none;text-decoration-line:none;text-decoration-style:solid;text-decoration-color:#000000;letter-spacing:normal;word-spacing:normal;text-transform:none;writing-mode:lr-tb;direction:ltr;baseline-shift:baseline;text-anchor:start;white-space:normal;clip-rule:nonzero;display:inline;overflow:visible;visibility:visible;opacity:1;isolation:auto;mix-blend-mode:normal;color-interpolation:sRGB;color-interpolation-filters:linearRGB;solid-color:#000000;solid-opacity:1;fill:#ffffff;fill-opacity:1;fill-rule:evenodd;stroke:none;stroke-width:20;stroke-linecap:square;stroke-linejoin:miter;stroke-miterlimit:4;stroke-dasharray:none;stroke-dashoffset:4;stroke-opacity:1;color-rendering:auto;image-rendering:auto;shape-rendering:auto;text-rendering:auto;enable-background:accumulate"
         d="m 7094.4124,339.88281 v 10 9.2481 c -5.3588,-2.9897 -11.403,-4.8536 -17.9355,-4.8536 -20.998,0 -37.9356,17.647 -37.9356,38.7911 0,21.1442 16.9376,38.789 37.9356,38.789 20.9979,0 37.9355,-17.6447 37.9355,-38.789 v -10 -33.1856 -10 z m -17.9355,34.3945 c 9.8584,0 17.9355,8.135 17.9355,18.7911 0,10.6562 -8.0771,18.789 -17.9355,18.789 -9.8586,0 -17.9356,-8.1327 -17.9356,-18.789 0,-10.6561 8.077,-18.7911 17.9356,-18.7911 z"
         id="path4910" />
      <path
         style="color:#000000;font-style:normal;font-variant:normal;font-weight:normal;font-stretch:normal;font-size:medium;line-height:normal;font-family:sans-serif;text-indent:0;text-align:start;text-decoration:none;text-decoration-line:none;text-decoration-style:solid;text-decoration-color:#000000;letter-spacing:normal;word-spacing:normal;text-transform:none;writing-mode:lr-tb;direction:ltr;baseline-shift:baseline;text-anchor:start;white-space:normal;clip-rule:nonzero;display:inline;overflow:visible;visibility:visible;opacity:1;isolation:auto;mix-blend-mode:normal;color-interpolation:sRGB;color-interpolation-filters:linearRGB;solid-color:#000000;solid-opacity:1;fill:#65003e;fill-opacity:1;fill-rule:evenodd;stroke:none;stroke-width:10;stroke-linecap:square;stroke-linejoin:miter;stroke-miterlimit:4;stroke-dasharray:none;stroke-dashoffset:0;stroke-opacity:1;color-rendering:auto;image-rendering:auto;shape-rendering:auto;text-rendering:auto;enable-background:accumulate"
         d="m 7018.1624,125.48241 c -0.943,-6.7541 -10.3947,-5.1005 -9.9277,1.1953 l 0.5976,4.9649 c 0,0 7.63,62.3611 -35.4101,94.1113 -23.8118,17.5657 -34.5549,37.2371 -38.8945,57.9668 -4.3397,20.7297 -7.5452,42.6928 -7.6956,65.5566 l -0.033,5 h 20 l 0.033,-5 c 0.1536,-23.3564 -6.4579,-44.6844 -2.5173,-63.5082 3.9406,-18.8237 12.8919,-35.6267 35.0449,-51.9687 48.8895,-36.0652 39.4004,-103.3535 39.4004,-103.3535 l -0.5977,-4.9649 z"
         id="path4912" />
      <path
         style="color:#000000;font-style:normal;font-variant:normal;font-weight:normal;font-stretch:normal;font-size:medium;line-height:normal;font-family:sans-serif;text-indent:0;text-align:start;text-decoration:none;text-decoration-line:none;text-decoration-style:solid;text-decoration-color:#000000;letter-spacing:normal;word-spacing:normal;text-transform:none;writing-mode:lr-tb;direction:ltr;baseline-shift:baseline;text-anchor:start;white-space:normal;clip-rule:nonzero;display:inline;overflow:visible;visibility:visible;opacity:1;isolation:auto;mix-blend-mode:normal;color-interpolation:sRGB;color-interpolation-filters:linearRGB;solid-color:#000000;solid-opacity:1;fill:#65003e;fill-opacity:1;fill-rule:evenodd;stroke:none;stroke-width:10;stroke-linecap:square;stroke-linejoin:miter;stroke-miterlimit:4;stroke-dasharray:none;stroke-dashoffset:0;stroke-opacity:1;color-rendering:auto;image-rendering:auto;shape-rendering:auto;text-rendering:auto;enable-background:accumulate"
         d="m 7026.055,125.48241 -0.5996,4.9649 c 0,0 -9.4871,67.2883 39.4023,103.3535 22.3789,16.5086 30.3911,29.8033 33.5332,44.873 3.1421,15.0698 -4.1658,32.747 -4.0115,56.209 l 0.033,5 h 20 l -0.031,-5 c -0.1497,-22.7581 -2.5749,-40.8569 -6.2014,-58.2496 -3.6265,-17.3927 -13.7988,-33.4798 -37.3848,-50.8789 -43.0401,-31.7502 -35.4101,-94.1113 -35.4101,-94.1113 l 0.5976,-4.9649 c 0.2266,-6.5506 -8.5325,-7.0458 -9.9277,-1.1953 z"
         id="path4914" />
      <path
         id="path4916"
         d="m 6928.9808,316.78521 c -0.1232,1.0166 -0.2455,2.0335 -0.3594,3.0546 h 15.9863 c -0.1161,-1.0182 -0.235,-2.0465 -0.3457,-3.0546 z m -1.1856,11.5 c -0.1471,1.7617 -0.2713,3.5305 -0.3867,5.3046 h 18.668 c -0.1624,-1.7887 -0.3516,-3.5434 -0.541,-5.3046 z m -0.7461,12.0214 c -0.121,2.9745 -0.197,5.9644 -0.2168,8.9707 v 0.3985 h 20 v -0.3985 c 0.02,-3.0253 -0.078,-6.0144 -0.248,-8.9707 z"
         style="opacity:1;fill:#ffffff;fill-opacity:1;fill-rule:evenodd;stroke:none;stroke-width:20;stroke-linecap:square;stroke-linejoin:miter;stroke-miterlimit:4;stroke-dasharray:none;stroke-dashoffset:4;stroke-opacity:1" />
      <path
         id="path4918"
         d="m 7097.7445,302.03521 c -0.1495,0.9987 -0.3043,2.0307 -0.4629,3.0546 h 15.4355 c -0.1109,-1.0263 -0.2288,-2.0435 -0.3496,-3.0546 z m -1.7344,11.5 c -0.2439,1.7328 -0.4731,3.4986 -0.6817,5.3046 h 18.543 c -0.1047,-1.7968 -0.2289,-3.5607 -0.3633,-5.3046 z m -1.3106,12.0214 c -0.2134,3.0087 -0.3414,6.1081 -0.3203,9.3262 v 0.043 h 20.002 v -0.043 c -0.021,-3.2 -0.091,-6.2994 -0.1992,-9.3262 z"
         style="opacity:1;fill:#ffffff;fill-opacity:1;fill-rule:evenodd;stroke:none;stroke-width:20;stroke-linecap:square;stroke-linejoin:miter;stroke-miterlimit:4;stroke-dasharray:none;stroke-dashoffset:4;stroke-opacity:1" />
      <path
         style="color:#000000;font-style:normal;font-variant:normal;font-weight:normal;font-stretch:normal;font-size:medium;line-height:normal;font-family:sans-serif;text-indent:0;text-align:start;text-decoration:none;text-decoration-line:none;text-decoration-style:solid;text-decoration-color:#000000;letter-spacing:normal;word-spacing:normal;text-transform:none;writing-mode:lr-tb;direction:ltr;baseline-shift:baseline;text-anchor:start;white-space:normal;clip-rule:nonzero;display:inline;overflow:visible;visibility:visible;opacity:1;isolation:auto;mix-blend-mode:normal;color-interpolation:sRGB;color-interpolation-filters:linearRGB;solid-color:#000000;solid-opacity:1;fill:#65003e;fill-opacity:1;fill-rule:evenodd;stroke:none;stroke-width:20;stroke-linecap:round;stroke-linejoin:miter;stroke-miterlimit:4;stroke-dasharray:none;stroke-dashoffset:0;stroke-opacity:1;color-rendering:auto;image-rendering:auto;shape-rendering:auto;text-rendering:auto;enable-background:accumulate"
         d="m 7054.0476,109.21001 c 4.443,0.063 8.0785,-3.5213 8.0785,-7.9647 0,-4.443405 -3.6355,-8.027805 -8.0785,-7.964705 l -67.7,6.964305 c -4.443,-0.063 -8.0785,1.557 -8.0785,6.0004 0,4.4434 3.6355,8.0277 8.0785,7.9647 z"
         id="path4920" />
      <path
         d="m 6975.7527,108.91731 c 27.6304,-6.8125 60.7086,-7.2865 87.3358,0 2.8588,0.7823 5.9838,1.2925 6.4962,6.0714 2.0456,67.5486 46.0914,80.0793 72.9076,109.8093 69.0061,68.9435 69.0061,179.2951 0.9433,247.3579 -68.0629,68.0629 -178.4145,68.0629 -246.4773,0 -68.0628,-68.0628 -68.0628,-178.4144 0.5479,-247.3579 26.4207,-29.73 70.14,-42.7763 72.1856,-110.3249 0.4951,-2.9323 3.3999,-4.8997 6.0609,-5.5558 z"
         style="fill:#ff003e;fill-opacity:1;fill-rule:evenodd;stroke:none;stroke-width:5;stroke-linecap:round;stroke-linejoin:miter;stroke-miterlimit:4;stroke-dasharray:none;stroke-opacity:1"
         id="path4923" />
      <path
         style="color:#000000;font-style:normal;font-variant:normal;font-weight:normal;font-stretch:normal;font-size:medium;line-height:normal;font-family:sans-serif;text-indent:0;text-align:start;text-decoration:none;text-decoration-line:none;text-decoration-style:solid;text-decoration-color:#000000;letter-spacing:normal;word-spacing:normal;text-transform:none;writing-mode:lr-tb;direction:ltr;baseline-shift:baseline;text-anchor:start;white-space:normal;clip-rule:nonzero;display:inline;overflow:visible;visibility:visible;opacity:1;isolation:auto;mix-blend-mode:normal;color-interpolation:sRGB;color-interpolation-filters:linearRGB;solid-color:#000000;solid-opacity:1;fill:#65003e;fill-opacity:1;fill-rule:evenodd;stroke:none;stroke-width:20;stroke-linecap:round;stroke-linejoin:miter;stroke-miterlimit:4;stroke-dasharray:none;stroke-dashoffset:0;stroke-opacity:1;color-rendering:auto;image-rendering:auto;shape-rendering:auto;text-rendering:auto;enable-background:accumulate"
         d="m 7054.0476,94.689005 c 4.443,0.063 8.0785,-2.2713 8.0785,-6.7147 0,-4.4434 -3.6355,-8.0277 -8.0785,-7.9647 l -67.7,6.9643 c -4.443,-0.063 -8.0785,1.557 -8.0785,6.0004 0,4.4434 3.6355,8.027705 8.0785,7.964705 z"
         id="path4925" />
      <path
         style="color:#000000;font-style:normal;font-variant:normal;font-weight:normal;font-stretch:normal;font-size:medium;line-height:normal;font-family:sans-serif;text-indent:0;text-align:start;text-decoration:none;text-decoration-line:none;text-decoration-style:solid;text-decoration-color:#000000;letter-spacing:normal;word-spacing:normal;text-transform:none;writing-mode:lr-tb;direction:ltr;baseline-shift:baseline;text-anchor:start;white-space:normal;clip-rule:nonzero;display:inline;overflow:visible;visibility:visible;opacity:1;isolation:auto;mix-blend-mode:normal;color-interpolation:sRGB;color-interpolation-filters:linearRGB;solid-color:#000000;solid-opacity:1;fill:#65003e;fill-opacity:1;fill-rule:evenodd;stroke:none;stroke-width:20;stroke-linecap:round;stroke-linejoin:miter;stroke-miterlimit:4;stroke-dasharray:none;stroke-dashoffset:0;stroke-opacity:1;color-rendering:auto;image-rendering:auto;shape-rendering:auto;text-rendering:auto;enable-background:accumulate"
         d="m 7054.0476,81.773605 c 4.443,0.063 8.0785,-2.2713 8.0785,-6.7147 0,-4.4434 -3.6355,-8.0277 -8.0785,-7.9647 l -67.7,6.9643 c -4.443,-0.063 -8.0785,1.557 -8.0785,6.0004 0,4.4434 3.6355,8.0277 8.0785,7.9647 z"
         id="path4927" />
      <path
         id="path4929"
         d="m 7034.4644,61.393905 a 4.1480647,4.974634 0 0 0 2.8449,-8.594 c -10.4174,-11.7755 -27.3448,-10.9846 -36.5884,0.1009 a 4.1480647,4.974634 0 0 0 2.9326,8.4931 z"
         style="color:#000000;font-style:normal;font-variant:normal;font-weight:normal;font-stretch:normal;font-size:medium;line-height:normal;font-family:sans-serif;text-indent:0;text-align:start;text-decoration:none;text-decoration-line:none;text-decoration-style:solid;text-decoration-color:#000000;letter-spacing:normal;word-spacing:normal;text-transform:none;writing-mode:lr-tb;direction:ltr;baseline-shift:baseline;text-anchor:start;white-space:normal;clip-rule:nonzero;display:inline;overflow:visible;visibility:visible;opacity:1;isolation:auto;mix-blend-mode:normal;color-interpolation:sRGB;color-interpolation-filters:linearRGB;solid-color:#000000;solid-opacity:1;fill:#65003e;fill-opacity:1;fill-rule:evenodd;stroke:none;stroke-width:10;stroke-linecap:round;stroke-linejoin:round;stroke-miterlimit:4;stroke-dasharray:none;stroke-dashoffset:0;stroke-opacity:1;color-rendering:auto;image-rendering:auto;shape-rendering:auto;text-rendering:auto;enable-background:accumulate" />
      <path
         id="path4931"
         d="m 7054.0476,69.273505 c 4.443,0.063 8.0785,-2.2713 8.0785,-6.7147 0,-4.4434 -4.3646,-7.2527 -8.0785,-7.9647 -27.1172,-5.199 -58.9106,2.8857 -70.0214,6.7857 -3.4811,1.2219 -5.7571,1.7356 -5.7571,6.179 0,4.4434 3.6355,8.0277 8.0785,7.9647 z"
         style="color:#000000;font-style:normal;font-variant:normal;font-weight:normal;font-stretch:normal;font-size:medium;line-height:normal;font-family:sans-serif;text-indent:0;text-align:start;text-decoration:none;text-decoration-line:none;text-decoration-style:solid;text-decoration-color:#000000;letter-spacing:normal;word-spacing:normal;text-transform:none;writing-mode:lr-tb;direction:ltr;baseline-shift:baseline;text-anchor:start;white-space:normal;clip-rule:nonzero;display:inline;overflow:visible;visibility:visible;opacity:1;isolation:auto;mix-blend-mode:normal;color-interpolation:sRGB;color-interpolation-filters:linearRGB;solid-color:#000000;solid-opacity:1;fill:#65003e;fill-opacity:1;fill-rule:evenodd;stroke:none;stroke-width:20;stroke-linecap:round;stroke-linejoin:miter;stroke-miterlimit:4;stroke-dasharray:none;stroke-dashoffset:0;stroke-opacity:1;color-rendering:auto;image-rendering:auto;shape-rendering:auto;text-rendering:auto;enable-background:accumulate" />
      <path
         id="path4933"
         d="m 6926.7991,354.27731 v 10 28.7911 c 0,21.1443 16.9377,38.789 37.9356,38.789 20.998,0 37.9355,-17.6448 37.9355,-38.789 v -28.7911 -10 h -20 v 10 28.7911 c 0,10.6563 -8.0769,18.789 -17.9355,18.789 -9.8583,0 -17.9356,-8.1328 -17.9356,-18.789 v -28.7911 -10 z"
         style="color:#000000;font-style:normal;font-variant:normal;font-weight:normal;font-stretch:normal;font-size:medium;line-height:normal;font-family:sans-serif;text-indent:0;text-align:start;text-decoration:none;text-decoration-line:none;text-decoration-style:solid;text-decoration-color:#000000;letter-spacing:normal;word-spacing:normal;text-transform:none;writing-mode:lr-tb;direction:ltr;baseline-shift:baseline;text-anchor:start;white-space:normal;clip-rule:nonzero;display:inline;overflow:visible;visibility:visible;opacity:1;isolation:auto;mix-blend-mode:normal;color-interpolation:sRGB;color-interpolation-filters:linearRGB;solid-color:#000000;solid-opacity:1;fill:#ffffff;fill-opacity:1;fill-rule:evenodd;stroke:none;stroke-width:20;stroke-linecap:square;stroke-linejoin:miter;stroke-miterlimit:4;stroke-dasharray:none;stroke-dashoffset:4;stroke-opacity:1;color-rendering:auto;image-rendering:auto;shape-rendering:auto;text-rendering:auto;enable-background:accumulate" />
      <path
         id="path4935"
         d="m 7020.6058,354.27731 c -20.998,0 -37.9356,17.6469 -37.9356,38.7911 0,21.1442 16.9376,38.789 37.9356,38.789 20.9979,0 37.9355,-17.6448 37.9355,-38.789 h -20 c 0,9.9902 -7.0989,17.7628 -16.1093,18.6953 -0.6007,0.062 -1.2101,0.094 -1.8262,0.094 -9.8585,0 -17.9356,-8.1327 -17.9356,-18.789 0,-0.666 0.032,-1.3219 0.094,-1.9668 0.9235,-9.6741 8.5994,-16.8243 17.8418,-16.8243 h 10 v -20 z"
         style="color:#000000;font-style:normal;font-variant:normal;font-weight:normal;font-stretch:normal;font-size:medium;line-height:normal;font-family:sans-serif;text-indent:0;text-align:start;text-decoration:none;text-decoration-line:none;text-decoration-style:solid;text-decoration-color:#000000;letter-spacing:normal;word-spacing:normal;text-transform:none;writing-mode:lr-tb;direction:ltr;baseline-shift:baseline;text-anchor:start;white-space:normal;clip-rule:nonzero;display:inline;overflow:visible;visibility:visible;opacity:1;isolation:auto;mix-blend-mode:normal;color-interpolation:sRGB;color-interpolation-filters:linearRGB;solid-color:#000000;solid-opacity:1;fill:#ffffff;fill-opacity:1;fill-rule:evenodd;stroke:none;stroke-width:20;stroke-linecap:square;stroke-linejoin:miter;stroke-miterlimit:4;stroke-dasharray:none;stroke-dashoffset:4;stroke-opacity:1;color-rendering:auto;image-rendering:auto;shape-rendering:auto;text-rendering:auto;enable-background:accumulate" />
      <path
         id="path4937"
         d="m 7094.4124,339.88281 v 10 9.2481 c -5.3588,-2.9897 -11.403,-4.8536 -17.9355,-4.8536 -20.998,0 -37.9356,17.647 -37.9356,38.7911 0,21.1442 16.9376,38.789 37.9356,38.789 20.9979,0 37.9355,-17.6447 37.9355,-38.789 v -10 -33.1856 -10 z m -17.9355,34.3945 c 9.8584,0 17.9355,8.135 17.9355,18.7911 0,10.6562 -8.0771,18.789 -17.9355,18.789 -9.8586,0 -17.9356,-8.1327 -17.9356,-18.789 0,-10.6561 8.077,-18.7911 17.9356,-18.7911 z"
         style="color:#000000;font-style:normal;font-variant:normal;font-weight:normal;font-stretch:normal;font-size:medium;line-height:normal;font-family:sans-serif;text-indent:0;text-align:start;text-decoration:none;text-decoration-line:none;text-decoration-style:solid;text-decoration-color:#000000;letter-spacing:normal;word-spacing:normal;text-transform:none;writing-mode:lr-tb;direction:ltr;baseline-shift:baseline;text-anchor:start;white-space:normal;clip-rule:nonzero;display:inline;overflow:visible;visibility:visible;opacity:1;isolation:auto;mix-blend-mode:normal;color-interpolation:sRGB;color-interpolation-filters:linearRGB;solid-color:#000000;solid-opacity:1;fill:#ffffff;fill-opacity:1;fill-rule:evenodd;stroke:none;stroke-width:20;stroke-linecap:square;stroke-linejoin:miter;stroke-miterlimit:4;stroke-dasharray:none;stroke-dashoffset:4;stroke-opacity:1;color-rendering:auto;image-rendering:auto;shape-rendering:auto;text-rendering:auto;enable-background:accumulate" />
      <path
         id="path4939"
         d="m 7018.1624,125.48241 c -0.943,-6.7541 -10.3947,-5.1005 -9.9277,1.1953 l 0.5976,4.9649 c 0,0 7.63,62.3611 -35.4101,94.1113 -23.8118,17.5657 -34.5549,37.2371 -38.8945,57.9668 -4.3397,20.7297 -7.5452,42.6928 -7.6956,65.5566 l -0.033,5 h 20 l 0.033,-5 c 0.1536,-23.3564 -6.4579,-44.6844 -2.5173,-63.5082 3.9406,-18.8237 12.8919,-35.6267 35.0449,-51.9687 48.8895,-36.0652 39.4004,-103.3535 39.4004,-103.3535 l -0.5977,-4.9649 z"
         style="color:#000000;font-style:normal;font-variant:normal;font-weight:normal;font-stretch:normal;font-size:medium;line-height:normal;font-family:sans-serif;text-indent:0;text-align:start;text-decoration:none;text-decoration-line:none;text-decoration-style:solid;text-decoration-color:#000000;letter-spacing:normal;word-spacing:normal;text-transform:none;writing-mode:lr-tb;direction:ltr;baseline-shift:baseline;text-anchor:start;white-space:normal;clip-rule:nonzero;display:inline;overflow:visible;visibility:visible;opacity:1;isolation:auto;mix-blend-mode:normal;color-interpolation:sRGB;color-interpolation-filters:linearRGB;solid-color:#000000;solid-opacity:1;fill:#65003e;fill-opacity:1;fill-rule:evenodd;stroke:none;stroke-width:10;stroke-linecap:square;stroke-linejoin:miter;stroke-miterlimit:4;stroke-dasharray:none;stroke-dashoffset:0;stroke-opacity:1;color-rendering:auto;image-rendering:auto;shape-rendering:auto;text-rendering:auto;enable-background:accumulate" />
      <path
         id="path4941"
         d="m 7026.055,125.48241 -0.5996,4.9649 c 0,0 -9.4871,67.2883 39.4023,103.3535 22.3789,16.5086 30.3911,29.8033 33.5332,44.873 3.1421,15.0698 -4.1658,32.747 -4.0115,56.209 l 0.033,5 h 20 l -0.031,-5 c -0.1497,-22.7581 -2.5749,-40.8569 -6.2014,-58.2496 -3.6265,-17.3927 -13.7988,-33.4798 -37.3848,-50.8789 -43.0401,-31.7502 -35.4101,-94.1113 -35.4101,-94.1113 l 0.5976,-4.9649 c 0.2266,-6.5506 -8.5325,-7.0458 -9.9277,-1.1953 z"
         style="color:#000000;font-style:normal;font-variant:normal;font-weight:normal;font-stretch:normal;font-size:medium;line-height:normal;font-family:sans-serif;text-indent:0;text-align:start;text-decoration:none;text-decoration-line:none;text-decoration-style:solid;text-decoration-color:#000000;letter-spacing:normal;word-spacing:normal;text-transform:none;writing-mode:lr-tb;direction:ltr;baseline-shift:baseline;text-anchor:start;white-space:normal;clip-rule:nonzero;display:inline;overflow:visible;visibility:visible;opacity:1;isolation:auto;mix-blend-mode:normal;color-interpolation:sRGB;color-interpolation-filters:linearRGB;solid-color:#000000;solid-opacity:1;fill:#65003e;fill-opacity:1;fill-rule:evenodd;stroke:none;stroke-width:10;stroke-linecap:square;stroke-linejoin:miter;stroke-miterlimit:4;stroke-dasharray:none;stroke-dashoffset:0;stroke-opacity:1;color-rendering:auto;image-rendering:auto;shape-rendering:auto;text-rendering:auto;enable-background:accumulate" />
      <path
         style="opacity:1;fill:#ffffff;fill-opacity:1;fill-rule:evenodd;stroke:none;stroke-width:20;stroke-linecap:square;stroke-linejoin:miter;stroke-miterlimit:4;stroke-dasharray:none;stroke-dashoffset:4;stroke-opacity:1"
         d="m 6928.9808,316.78521 c -0.1232,1.0166 -0.2455,2.0335 -0.3594,3.0546 h 15.9863 c -0.1161,-1.0182 -0.235,-2.0465 -0.3457,-3.0546 z m -1.1856,11.5 c -0.1471,1.7617 -0.2713,3.5305 -0.3867,5.3046 h 18.668 c -0.1624,-1.7887 -0.3516,-3.5434 -0.541,-5.3046 z m -0.7461,12.0214 c -0.121,2.9745 -0.197,5.9644 -0.2168,8.9707 v 0.3985 h 20 v -0.3985 c 0.02,-3.0253 -0.078,-6.0144 -0.248,-8.9707 z"
         id="path4943" />
      <path
         style="opacity:1;fill:#ffffff;fill-opacity:1;fill-rule:evenodd;stroke:none;stroke-width:20;stroke-linecap:square;stroke-linejoin:miter;stroke-miterlimit:4;stroke-dasharray:none;stroke-dashoffset:4;stroke-opacity:1"
         d="m 7097.7445,302.03521 c -0.1495,0.9987 -0.3043,2.0307 -0.4629,3.0546 h 15.4355 c -0.1109,-1.0263 -0.2288,-2.0435 -0.3496,-3.0546 z m -1.7344,11.5 c -0.2439,1.7328 -0.4731,3.4986 -0.6817,5.3046 h 18.543 c -0.1047,-1.7968 -0.2289,-3.5607 -0.3633,-5.3046 z m -1.3106,12.0214 c -0.2134,3.0087 -0.3414,6.1081 -0.3203,9.3262 v 0.043 h 20.002 v -0.043 c -0.021,-3.2 -0.091,-6.2994 -0.1992,-9.3262 z"
         id="path4945" />
    </g>
  </g>
</svg>
